PathFileType	4	(X/Y/Z)	Patient4_TMGait_0pt4_03_left_05.trc.trc
DataRate	CameraRate	NumFrames	NumMarkers	Units	OrigDataRate	OrigDataStartFrame	OrigNumFrames
75.268817204301	75.268817204301	5	33	mm	75.268817204301	124	       141
Frame#	Time	Sacral			L.Shoulder			Chest			R.Shoulder			Neck			R.ASIS			L.ASIS			R.Thigh.Superior			R.Thigh.Lateral			R.Thigh.Inferior			R.Patella			L.Thigh.Superior			L.Thigh.Lateral			L.Thigh.Inferior			L.Patella			L.Shank.Superior			L.Shank.Lateral			L.Shank.Inferior			R.Shank.Superior			R.Shank.Lateral			R.Shank.Inferior			R.Heel			R.Midfoot.Superior			R.Midfoot.Lateral			R.Toe			L.Heel			L.Midfoot.Lateral			L.Midfoot.Superior			L.Toe			L.Elbow			L.Wrist			R.Elbow			R.Wrist			
		X1	Y1	Z1	X2	Y2	Z2	X3	Y3	Z3	X4	Y4	Z4	X5	Y5	Z5	X6	Y6	Z6	X7	Y7	Z7	X8	Y8	Z8	X9	Y9	Z9	X10	Y10	Z10	X11	Y11	Z11	X12	Y12	Z12	X13	Y13	Z13	X14	Y14	Z14	X15	Y15	Z15	X16	Y16	Z16	X17	Y17	Z17	X18	Y18	Z18	X19	Y19	Z19	X20	Y20	Z20	X21	Y21	Z21	X22	Y22	Z22	X23	Y23	Z23	X24	Y24	Z24	X25	Y25	Z25	X26	Y26	Z26	X27	Y27	Z27	X28	Y28	Z28	X29	Y29	Z29	X30	Y30	Z30	X31	Y31	Z31	X32	Y32	Z32	X33	Y33	Z33	

124	7.734142857143	810.218744296849	1000.782700827389	529.994340665682	948.476741625101	1430.317870949997	328.689736135382	1082.418154432958	1360.300322449286	464.662019481392	1035.992223802787	1431.206574317907	652.769816236681	972.829732396788	1490.836678600730	484.001789751171	1051.498873986372	937.331091961844	616.146064724484	1002.280094415868	957.479733604084	344.570514867437	1051.752166070171	726.008964558264	590.687883358773	956.846310303102	629.445665303565	662.101295958869	1013.670456677772	565.434702169269	578.510669463725	997.687148240411	480.289996661280	586.430624284246	1074.844752320399	764.951343946660	363.832407768545	1009.429482393310	635.468002832981	297.428308947614	1116.132085591218	574.614744820299	348.607412732227	1137.744921223234	509.513687074012	347.496628989028	1119.680436383928	437.763821601675	338.525339922987	1046.578130617385	310.425539464128	291.544602115991	1133.002615364204	208.283049155503	341.039849271127	960.470464275615	394.766994975174	597.158802653624	881.189232142548	300.563396721717	665.741527124585	908.322517893295	201.222760699928	600.816274970311	760.467881901800	42.483606217324	576.804788839778	932.006606245298	96.069111955907	609.106820709499	844.704070113595	36.011727809297	650.022295682634	1052.810238103272	44.105860444797	635.238716487291	1041.981853988314	40.401118208440	382.343045824484	1114.019464381359	37.695000027512	300.559674178656	1193.647951231590	105.152343548305	322.015154784216	1322.774039895708	60.973521409283	291.945063336522	815.627518967532	1097.104126901738	250.396892109776	827.385254199140	833.747125454049	249.439894632019	1173.815892244081	1110.493814537604	750.574185320777	1403.215821746371	1141.118782867842	647.378735421511	
125	7.747428571429	811.160501912156	999.548850392266	526.984381932791	948.074466085423	1429.010549377321	325.009950430467	1082.067837813814	1359.924799821488	461.400122676640	1034.924343869567	1431.035713816756	649.292767075380	971.964049032197	1490.080612872739	480.153555639606	1052.433348715326	936.637647219389	613.773352570603	1003.870022561076	956.600802602546	342.258345136983	1052.865299586322	724.938674132510	588.511618035632	957.567177418404	628.461160448977	659.847197514134	1014.214463545668	564.157359869891	576.319107486213	997.861614104919	478.367596094903	584.265017314634	1076.836050513383	763.685909533992	362.362083599138	1010.464509198816	634.433364159481	296.909718736147	1116.645245986719	573.526567343871	348.780378759027	1136.867762888043	507.422850336404	348.365202227795	1118.464028691981	435.275342925821	339.049465771544	1043.785646839898	308.811897043765	292.039905937906	1128.133674119285	205.598641208147	342.752109268436	959.357027474640	393.348409200012	595.304191655402	879.057951139474	300.357735268963	664.439506358895	904.549164249922	200.461720454900	599.885748386757	755.130262166153	42.517607982799	576.778665171347	926.712869759827	95.945978420917	608.854041657962	839.382403601877	35.952930233282	649.934491989698	1047.558506931749	43.753388347071	635.301008896254	1033.723694094280	39.567912109001	383.741027451585	1105.775591949674	36.598886396206	301.868501172775	1186.661526869917	102.194781982504	324.475822287542	1315.275713212334	55.906759492049	293.911212376604	817.232192495286	1094.879420819411	246.732862311037	831.078172984517	831.620520117049	245.531495490944	1171.748508288382	1109.710934631305	747.696182859814	1401.024279606003	1138.147415738898	643.362740369443	
126	7.760714285714	812.044657299811	998.441463529240	523.977380795928	947.767009883629	1427.773935383925	321.190316213771	1081.804618499877	1359.601699007455	457.999520960695	1033.999398229774	1431.018813529457	645.652400201076	971.208371497978	1489.431555430469	476.129412110296	1053.337565763262	936.011266272387	611.268181380069	1005.333013487678	955.939027047732	339.829321962484	1054.240172400114	723.942931956725	586.137750492979	958.744953881714	627.397312416151	657.382782362235	1015.322881173034	562.874185940062	573.915257527866	998.730944715907	476.271523022872	581.985540267946	1078.851077409508	762.799489870621	360.994265478867	1011.919053145715	633.910075331277	296.095866500902	1117.429147458804	572.877389084524	348.858067906734	1136.212699701131	505.799395299014	349.028030176960	1117.597430171120	433.279254622378	339.264980266432	1041.657589208756	307.655703327976	291.864194077178	1123.854166138167	203.469729635846	344.005943257297	958.705308973411	391.854566781555	593.320328457840	877.255048293207	300.233679456833	663.011770115955	900.973600914562	199.738998905106	598.904481141274	749.794340727341	42.746467541740	576.767816697511	921.500734040695	95.843261502351	608.589976479182	834.090105394969	35.971280902392	649.827631430500	1042.357433817141	43.303705327655	635.375783974828	1026.281328361991	38.948795942597	384.619042010120	1098.366364463663	35.882448690443	302.673165849023	1180.192225603013	100.015498922209	326.328348926894	1308.439804466205	52.146087413983	295.346531220761	819.264823842628	1092.603842605535	242.726564460375	835.418368430300	829.483404615646	241.050157201210	1169.249444697898	1108.947868794245	745.147785650959	1398.550931726118	1134.121761509589	639.730633937224	
127	7.774000000000	812.837984278218	997.508896778482	521.000924593253	947.537806193564	1426.655891004148	317.279276711331	1081.619857344010	1359.349588853081	454.487814457556	1033.242539807077	1431.179368245373	641.879258697802	970.569454597442	1488.920525901508	471.981138651924	1054.168637616139	935.494914074178	608.634517240013	1006.606029867566	955.525943825300	337.265405954857	1055.800903153398	723.077603164396	583.565024098043	960.345989745073	626.304457922831	654.735948149806	1016.990804631156	561.640628794053	571.340250554330	1000.329054511804	474.048610406326	579.677213270496	1080.819874763519	762.342724075431	359.643374041167	1013.702120271834	633.873421249945	294.954836046812	1118.422740222443	572.637706641922	348.693466953735	1135.771745861368	504.653874592979	349.355484300651	1117.040149753957	431.779140567469	339.143506046590	1040.138065763172	306.950849723982	291.040452822398	1120.128311897485	201.902575432101	344.794658626625	958.544314961833	390.343258707579	591.274254247181	875.785875506367	300.259088179898	661.492024534564	897.628827845928	199.127918317667	597.911927049909	744.479195161730	43.299320984040	576.780028325077	916.414024481493	95.788899022053	608.341180171518	828.841740052348	36.137144711480	649.710645785015	1037.209853612750	42.762057997157	635.459545834057	1019.672687239381	38.542409529909	385.039265322130	1091.800269145241	35.484861487111	303.033389634593	1174.251073313595	98.585626702552	327.559683346594	1302.272236068895	49.651642596151	296.261726930888	821.733182674674	1090.335187234646	238.400851964720	840.398083552528	827.399803937867	236.041486171145	1166.333360371896	1108.242720195813	742.903208310749	1395.766365096143	1129.041206632370	636.469998333067	
128	7.787285714286	813.517857316965	996.780287672541	518.057809163199	947.360759550754	1425.691466144017	313.321132540329	1081.494296864309	1359.184687889779	450.894698247870	1032.650451977419	1431.525491747260	638.007798044735	970.036797188040	1488.566591133127	467.761402332824	1054.891026112764	935.125382119181	605.877820560686	1007.658542163782	955.367454024666	334.552650138337	1057.484907095177	722.398315004424	580.807913747443	962.342473957254	625.239369268548	651.945331135055	1019.225563094225	560.518491293266	568.646778811020	1002.697035933479	471.759551271714	577.431658833121	1082.679597273086	762.307900592261	358.202556604995	1015.666473387656	634.236177242763	293.486104766237	1119.515490353751	572.716005463893	348.172730792315	1135.489541096707	503.930701394982	349.275176881156	1116.693649510763	430.715923139857	338.702763325130	1039.076244779285	306.635571772156	289.677911904192	1116.834225601549	200.836233019300	345.170504516112	958.927342146187	388.879950092441	589.241071272262	874.679517871096	300.511102852115	659.918736533274	894.568295897556	198.712827335940	596.951217350936	739.221442248245	44.335789926647	576.821960890938	911.508745784174	95.816934512508	608.137492581047	823.659284088400	36.542293226257	649.594935039509	1032.114098779043	42.140640702440	635.547762613599	1013.792893697799	38.320682871644	385.098304431194	1085.963556791643	35.325036428832	303.041663169783	1168.761539647095	97.800393636475	328.231639162553	1296.677746398326	48.254044798169	296.723229639908	824.633421888973	1088.124027106543	233.774933082052	846.020573607826	825.428945620078	230.556443894772	1163.002816159268	1107.622872257563	740.922874642714	1392.610508494582	1122.917099743340	633.567445629565	
